<svg width="243" height="218" viewBox="0 0 243 218" fill="none" xmlns="http://www.w3.org/2000/svg">
<path d="M22.4917 55.6859C18.4269 55.6859 14.6415 55.2541 11.1355 54.3903C7.68042 53.4757 4.83502 52.2308 2.59935 50.6557C1.73557 49.9951 1.10044 49.3092 0.693953 48.5979C0.338278 47.8865 0.160441 46.9719 0.160441 45.8541C0.160441 44.3298 0.617737 43.0087 1.53233 41.8908C2.44692 40.773 3.51395 40.2141 4.7334 40.2141C5.39394 40.2141 6.02907 40.3157 6.6388 40.519C7.24853 40.7222 8.01069 41.1033 8.92528 41.6622C11.0085 42.8308 13.0664 43.6692 15.0988 44.1773C17.182 44.6854 19.5193 44.9395 22.1107 44.9395C25.1085 44.9395 27.3696 44.5076 28.8939 43.6438C30.469 42.7292 31.2566 41.4081 31.2566 39.6806C31.2566 38.5119 30.5198 37.5211 29.0463 36.7082C27.6236 35.8444 24.8798 35.006 20.815 34.193C15.7847 33.126 11.8469 31.8557 9.0015 30.3822C6.1561 28.9087 4.14908 27.1812 2.98043 25.1995C1.8626 23.1671 1.30368 20.7282 1.30368 17.8828C1.30368 14.6309 2.26908 11.6839 4.19989 9.04174C6.1307 6.39958 8.77285 4.34175 12.1264 2.86824C15.5307 1.34392 19.3415 0.581759 23.5588 0.581759C27.2679 0.581759 30.5706 0.988245 33.4668 1.80122C36.3631 2.61419 39.0052 3.88445 41.3933 5.61202C42.3079 6.27256 42.943 6.98391 43.2987 7.74607C43.7052 8.45742 43.9084 9.3466 43.9084 10.4136C43.9084 11.9379 43.4511 13.259 42.5365 14.3769C41.6728 15.4947 40.6311 16.0536 39.4117 16.0536C38.7512 16.0536 38.1414 15.9774 37.5825 15.825C37.0236 15.6217 36.236 15.2152 35.2198 14.6055C34.9658 14.4531 34.229 14.072 33.0095 13.4623C31.8409 12.8017 30.4436 12.2936 28.8177 11.9379C27.2425 11.5315 25.515 11.3282 23.635 11.3282C21.0436 11.3282 18.9604 11.8363 17.3853 12.8525C15.8101 13.8179 15.0226 15.1136 15.0226 16.7396C15.0226 17.705 15.302 18.4925 15.8609 19.1023C16.4199 19.712 17.4615 20.3217 18.9858 20.9314C20.5101 21.4904 22.7712 22.0747 25.769 22.6844C30.6468 23.7514 34.4831 25.0471 37.2776 26.5714C40.0722 28.0449 42.0538 29.7725 43.2225 31.7541C44.3911 33.7357 44.9755 36.073 44.9755 38.766C44.9755 42.1195 44.0355 45.0919 42.1555 47.6833C40.2755 50.2238 37.6333 52.2054 34.229 53.6281C30.8755 55 26.9631 55.6859 22.4917 55.6859ZM67.8423 55.4573C65.7083 55.4573 64.0061 54.8476 62.7359 53.6281C61.5164 52.3578 60.9067 50.6557 60.9067 48.5216V7.74607C60.9067 5.66283 61.4656 4.06229 62.5834 2.94446C63.7013 1.82662 65.3018 1.2677 67.3851 1.2677H86.8964C92.8412 1.2677 97.465 2.79202 100.768 5.84066C104.07 8.8385 105.722 13.0304 105.722 18.4163C105.722 23.7514 104.045 27.9433 100.691 30.992C97.3888 34.0406 92.7904 35.5649 86.8964 35.5649H74.9304V48.5216C74.9304 50.6557 74.2953 52.3578 73.025 53.6281C71.7548 54.8476 70.0272 55.4573 67.8423 55.4573ZM84.991 25.0471C87.5823 25.0471 89.4877 24.5136 90.7072 23.4466C91.9774 22.3795 92.6126 20.7282 92.6126 18.4925C92.6126 14.072 90.072 11.8617 84.991 11.8617H74.9304V25.0471H84.991ZM127.422 55.4573C125.288 55.4573 123.586 54.8476 122.316 53.6281C121.096 52.3578 120.486 50.6557 120.486 48.5216V7.74607C120.486 5.66283 121.096 4.01148 122.316 2.79202C123.586 1.52176 125.288 0.886624 127.422 0.886624C129.607 0.886624 131.335 1.52176 132.605 2.79202C133.875 4.01148 134.51 5.66283 134.51 7.74607V48.5216C134.51 50.6557 133.875 52.3578 132.605 53.6281C131.335 54.8476 129.607 55.4573 127.422 55.4573ZM158.708 55C156.625 55 155.024 54.4411 153.906 53.3232C152.788 52.2054 152.23 50.5795 152.23 48.4454V7.74607C152.23 5.66283 152.839 4.01148 154.059 2.79202C155.329 1.52176 157.031 0.886624 159.165 0.886624C161.35 0.886624 163.078 1.52176 164.348 2.79202C165.618 4.01148 166.253 5.66283 166.253 7.74607V43.6438H183.783C188.204 43.6438 190.414 45.5492 190.414 49.36C190.414 51.2908 189.855 52.7135 188.737 53.6281C187.67 54.5427 186.019 55 183.783 55H158.708ZM210.324 55C208.24 55 206.64 54.4411 205.522 53.3232C204.404 52.2054 203.845 50.5795 203.845 48.4454V7.74607C203.845 5.66283 204.455 4.01148 205.675 2.79202C206.945 1.52176 208.647 0.886624 210.781 0.886624C212.966 0.886624 214.693 1.52176 215.964 2.79202C217.234 4.01148 217.869 5.66283 217.869 7.74607V43.6438H235.399C239.819 43.6438 242.03 45.5492 242.03 49.36C242.03 51.2908 241.471 52.7135 240.353 53.6281C239.286 54.5427 237.634 55 235.399 55H210.324ZM59.6822 136.381C57.5481 136.381 55.8206 135.771 54.4995 134.552C53.2292 133.282 52.5941 131.605 52.5941 129.522V93.6239H41.8476C39.612 93.6239 37.9352 93.1666 36.8174 92.252C35.7503 91.2866 35.2168 89.8385 35.2168 87.9077C35.2168 85.9769 35.7503 84.5542 36.8174 83.6396C37.9352 82.725 39.612 82.2677 41.8476 82.2677H77.5167C79.7524 82.2677 81.4037 82.725 82.4708 83.6396C83.5886 84.5542 84.1475 85.9769 84.1475 87.9077C84.1475 89.8385 83.5886 91.2866 82.4708 92.252C81.4037 93.1666 79.7524 93.6239 77.5167 93.6239H66.7703V129.522C66.7703 131.605 66.1097 133.282 64.7886 134.552C63.5184 135.771 61.8162 136.381 59.6822 136.381ZM139.16 81.8866C141.244 81.8866 142.895 82.5218 144.114 83.792C145.385 85.0115 146.02 86.6628 146.02 88.7461V129.522C146.02 131.605 145.385 133.282 144.114 134.552C142.895 135.822 141.244 136.457 139.16 136.457C137.077 136.457 135.4 135.848 134.13 134.628C132.911 133.358 132.301 131.656 132.301 129.522V114.278H110.351V129.522C110.351 131.605 109.716 133.282 108.445 134.552C107.226 135.822 105.574 136.457 103.491 136.457C101.408 136.457 99.7312 135.848 98.4609 134.628C97.2415 133.358 96.6318 131.656 96.6318 129.522V88.7461C96.6318 86.6628 97.2415 85.0115 98.4609 83.792C99.7312 82.5218 101.408 81.8866 103.491 81.8866C105.574 81.8866 107.226 82.5218 108.445 83.792C109.716 85.0115 110.351 86.6628 110.351 88.7461V103.151H132.301V88.7461C132.301 86.6628 132.911 85.0115 134.13 83.792C135.4 82.5218 137.077 81.8866 139.16 81.8866ZM170.282 136C168.198 136 166.598 135.441 165.48 134.323C164.362 133.205 163.803 131.605 163.803 129.522V88.7461C163.803 86.6628 164.362 85.0623 165.48 83.9445C166.598 82.8266 168.198 82.2677 170.282 82.2677H196.652C198.837 82.2677 200.489 82.725 201.607 83.6396C202.724 84.5542 203.283 85.8753 203.283 87.6028C203.283 91.2612 201.073 93.0904 196.652 93.0904H177.446V103.303H195.128C199.549 103.303 201.759 105.107 201.759 108.715C201.759 110.442 201.2 111.763 200.082 112.678C198.964 113.592 197.313 114.05 195.128 114.05H177.446V125.177H196.652C201.073 125.177 203.283 127.007 203.283 130.665C203.283 132.392 202.724 133.714 201.607 134.628C200.489 135.543 198.837 136 196.652 136H170.282ZM60.6125 217.381C58.4785 217.381 56.7509 216.771 55.4298 215.552C54.1596 214.282 53.5244 212.605 53.5244 210.522V174.624H42.778C40.5423 174.624 38.8656 174.167 37.7477 173.252C36.6807 172.287 36.1472 170.838 36.1472 168.908C36.1472 166.977 36.6807 165.554 37.7477 164.64C38.8656 163.725 40.5423 163.268 42.778 163.268H78.4471C80.6828 163.268 82.3341 163.725 83.4011 164.64C84.519 165.554 85.0779 166.977 85.0779 168.908C85.0779 170.838 84.519 172.287 83.4011 173.252C82.3341 174.167 80.6828 174.624 78.4471 174.624H67.7006V210.522C67.7006 212.605 67.0401 214.282 65.719 215.552C64.4487 216.771 62.7466 217.381 60.6125 217.381ZM104.04 217C101.957 217 100.357 216.441 99.2389 215.323C98.121 214.205 97.5621 212.605 97.5621 210.522V169.746C97.5621 167.663 98.121 166.062 99.2389 164.944C100.357 163.827 101.957 163.268 104.04 163.268H130.411C132.596 163.268 134.247 163.725 135.365 164.64C136.483 165.554 137.042 166.875 137.042 168.603C137.042 172.261 134.832 174.09 130.411 174.09H111.205V184.303H128.887C133.307 184.303 135.518 186.107 135.518 189.715C135.518 191.442 134.959 192.763 133.841 193.678C132.723 194.592 131.072 195.05 128.887 195.05H111.205V206.177H130.411C134.832 206.177 137.042 208.007 137.042 211.665C137.042 213.392 136.483 214.714 135.365 215.628C134.247 216.543 132.596 217 130.411 217H104.04ZM201.815 208.388C202.272 209.353 202.501 210.293 202.501 211.208C202.501 212.884 201.815 214.307 200.443 215.476C199.122 216.644 197.597 217.229 195.87 217.229C194.701 217.229 193.634 216.924 192.669 216.314C191.703 215.704 190.941 214.79 190.382 213.57L186.952 205.872H162.259L158.753 213.57C158.194 214.79 157.406 215.704 156.39 216.314C155.424 216.924 154.357 217.229 153.189 217.229C151.461 217.229 149.886 216.644 148.463 215.476C147.092 214.307 146.406 212.884 146.406 211.208C146.406 210.293 146.634 209.353 147.092 208.388L167.213 167.079C167.873 165.707 168.838 164.665 170.109 163.954C171.43 163.191 172.878 162.81 174.453 162.81C175.977 162.81 177.4 163.191 178.721 163.954C180.042 164.665 181.033 165.707 181.694 167.079L201.815 208.388ZM182.227 195.355L174.606 178.358L166.984 195.355H182.227Z" fill="url(#paint0_linear)"/>
<defs>
<linearGradient id="paint0_linear" x1="366" y1="110.5" x2="123.018" y2="-135.481" gradientUnits="userSpaceOnUse">
<stop stop-color="#FF7676"/>
<stop offset="1" stop-color="#F54EA2"/>
</linearGradient>
</defs>
</svg>
