<svg width="174" height="221" viewBox="0 0 174 221" fill="none" xmlns="http://www.w3.org/2000/svg">
<path d="M133.434 96.3938C131.384 96.3938 129.382 96.546 127.415 96.8387V90.3047C127.415 80.7611 123.761 71.2176 116.478 63.9341C101.911 49.3553 78.2803 49.3553 63.7016 63.9341C49.1345 49.3553 25.4923 49.3553 10.9253 63.9341C3.64176 71.2176 0 80.7611 0 90.3047V156.992C0 192.18 28.5252 220.706 63.7133 220.706C92.2502 220.706 116.408 201.935 124.511 176.068C127.38 176.723 130.366 177.075 133.434 177.075C155.718 177.075 173.774 159.006 173.774 136.734C173.774 114.45 155.706 96.3938 133.434 96.3938ZM63.7133 112.073C39.0758 112.073 19.0988 102.319 19.0988 90.2929C19.0988 78.2669 39.0758 68.5243 63.7133 68.5243C88.3508 68.5243 108.328 78.2669 108.328 90.2929C108.328 102.331 88.3508 112.073 63.7133 112.073ZM133.434 155.903C122.836 155.903 114.253 147.32 114.253 136.723C114.253 126.137 122.836 117.542 133.434 117.542C144.031 117.542 152.614 126.125 152.614 136.723C152.614 147.32 144.019 155.903 133.434 155.903Z" fill="url(#paint0_linear)"/>
<path d="M63.7132 39.7549C61.2658 39.7549 59.2751 37.7643 59.2751 35.3169V4.43803C59.2751 1.99067 61.2541 0 63.7132 0C66.1605 0 68.1512 1.97896 68.1512 4.43803V35.3169C68.1395 37.7643 66.1605 39.7549 63.7132 39.7549Z" fill="url(#paint1_linear)"/>
<path d="M27.1902 45.9495C24.7429 45.9495 22.7522 43.9705 22.7522 41.5232V21.2768C22.7522 18.8295 24.7429 16.8388 27.1902 16.8388C29.6376 16.8388 31.6283 18.8295 31.6283 21.2768V41.5232C31.6283 43.9705 29.6376 45.9495 27.1902 45.9495Z" fill="url(#paint2_linear)"/>
<path d="M100.213 45.9495C97.7656 45.9495 95.7749 43.9705 95.7749 41.5232V21.2768C95.7749 18.8295 97.7656 16.8388 100.213 16.8388C102.66 16.8388 104.651 18.8295 104.651 21.2768V41.5232C104.651 43.9705 102.66 45.9495 100.213 45.9495Z" fill="url(#paint3_linear)"/>
<defs>
<linearGradient id="paint0_linear" x1="260.661" y1="136.853" x2="93.0616" y2="-36.8117" gradientUnits="userSpaceOnUse">
<stop stop-color="#FF7676"/>
<stop offset="1" stop-color="#F54EA2"/>
</linearGradient>
<linearGradient id="paint1_linear" x1="72.5892" y1="19.8775" x2="55.68" y2="16.1022" gradientUnits="userSpaceOnUse">
<stop stop-color="#FF7676"/>
<stop offset="1" stop-color="#F54EA2"/>
</linearGradient>
<linearGradient id="paint2_linear" x1="36.0663" y1="31.3941" x2="19.8242" y2="26.4418" gradientUnits="userSpaceOnUse">
<stop stop-color="#FF7676"/>
<stop offset="1" stop-color="#F54EA2"/>
</linearGradient>
<linearGradient id="paint3_linear" x1="109.089" y1="31.3941" x2="92.8469" y2="26.4418" gradientUnits="userSpaceOnUse">
<stop stop-color="#FF7676"/>
<stop offset="1" stop-color="#F54EA2"/>
</linearGradient>
</defs>
</svg>
